<svg width="299" height="299" viewBox="0 0 299 299" fill="none" xmlns="http://www.w3.org/2000/svg">
<path fill-rule="evenodd" clip-rule="evenodd" d="M122.988 1.36784C62.0642 12.5048 14.1122 59.6928 1.78623 120.638C0.443229 127.28 0.0102294 134.261 0.000229353 149.408C-0.00977065 166.723 0.300229 170.802 2.31223 179.789C9.00223 209.667 22.1712 233.739 43.4262 254.942C64.9372 276.401 88.6462 289.375 118.607 296.084C127.68 298.115 131.572 298.402 149.488 298.362C171.608 298.313 180.282 297.048 197.009 291.433C204.187 289.023 220.488 282.002 220.488 281.321C220.488 281.151 209.529 266.251 196.135 248.21C182.741 230.169 160.849 199.208 147.487 179.408C134.125 159.608 120.672 139.808 117.59 135.408L111.988 127.408L111.488 171.739C110.917 222.339 111.617 218.908 101.868 218.908C92.8292 218.908 93.4882 223.868 93.4882 155.872C93.4882 87.1238 92.3442 93.9078 103.932 93.9078H110.508L138.756 136.658C154.292 160.17 181.175 200.888 198.496 227.141C215.817 253.394 230.359 274.882 230.813 274.891C232.585 274.928 247.384 263 254.985 255.408C274.403 236.015 288.302 211.483 295.162 184.492C297.366 175.822 297.795 171.551 298.224 154.035C298.558 140.41 298.316 131.142 297.495 126.053C287.245 62.5118 237.908 12.2788 175.107 1.44084C164.177 -0.446163 133.146 -0.489163 122.988 1.36784ZM202.288 91.1078C203.191 92.0108 203.488 105.513 203.488 145.733V199.157L194.488 185.408L185.488 171.659V132.612C185.488 87.2538 184.9 89.9078 194.943 89.9078C198.389 89.9078 201.615 90.4348 202.288 91.1078Z" fill="white"/>
</svg>
