<svg width="32" height="25" viewBox="0 0 32 25" fill="none" xmlns="http://www.w3.org/2000/svg">
<g clip-path="url(#clip0_30_356)">
<path d="M9.33626 15.9368L6.40468 17.1866L9.11968 18.3388L12.2679 17.1866L9.33626 15.9368ZM4.92879 17.499L4.83056 23.1229L9.11965 24.9975V19.1587L4.92879 17.499ZM13.7437 17.499L9.86764 18.9637V24.4701L13.7437 22.908V17.499ZM18.3677 0.00244141L15.416 1.25222L18.1511 2.40449L21.2993 1.25222L18.3677 0.00244141ZM14.2751 1.66276V7.28664L17.9346 8.34142L18.0529 3.22492L14.2751 1.66276ZM22.4604 1.97517L18.9974 3.4399V8.96632L22.4604 7.40413V1.97517H22.4604ZM4.50568 7.91777L1.57409 9.16752L4.28909 10.3198L7.43726 9.16752L4.50568 7.91777ZM0.0982297 9.47996L0 15.1039L4.28909 16.9785V11.1396L0.0982297 9.47996ZM8.91315 9.47996L5.03711 10.9447V16.4511L8.91315 14.8889V9.47996ZM13.9502 7.71029L11.0186 8.96004L13.7336 10.1123L16.8818 8.96004L13.9502 7.71029ZM9.54276 9.27251L9.44453 14.8964L13.7336 16.771V10.9328L9.54276 9.27251ZM18.3577 9.27251L14.4816 10.7372V16.2436L18.3577 14.6814V9.27251ZM27.5926 0.00244141L24.661 1.25219L27.376 2.40446L30.5242 1.25219L27.5926 0.00244141ZM23.1851 1.56463L23.0869 7.18851L27.376 9.06314V3.22492L23.1851 1.56463ZM32 1.56463L28.124 3.02933V8.53575L32 6.97356V1.56463Z" fill="#F7A80D"/>
</g>
<defs>
<clipPath id="clip0_30_356">
<rect width="32" height="25" fill="white"/>
</clipPath>
</defs>
</svg>
