<svg width="19" height="26" viewBox="0 0 19 26" fill="none" xmlns="http://www.w3.org/2000/svg">
<path d="M4.75101 25.9999C7.37249 25.9999 9.50006 24.0586 9.50006 21.6666V17.3333H4.75101C2.12953 17.3333 0.00195312 19.2746 0.00195312 21.6666C0.00195312 24.0586 2.12953 25.9999 4.75101 25.9999Z" fill="#0ACF83"/>
<path d="M0.00195312 13.0001C0.00195312 10.6081 2.12953 8.66675 4.75101 8.66675H9.50006V17.3334H4.75101C2.12953 17.3334 0.00195312 15.3921 0.00195312 13.0001Z" fill="#A259FF"/>
<path d="M0.00195312 4.33333C0.00195312 1.94133 2.12953 0 4.75101 0H9.50006V8.66665H4.75101C2.12953 8.66665 0.00195312 6.72532 0.00195312 4.33333Z" fill="#F24E1E"/>
<path d="M9.5 0H14.2491C16.8706 0 18.9981 1.94133 18.9981 4.33333C18.9981 6.72532 16.8706 8.66665 14.2491 8.66665H9.5V0Z" fill="#FF7262"/>
<path d="M18.9981 13.0001C18.9981 15.3921 16.8706 17.3334 14.2491 17.3334C11.6276 17.3334 9.5 15.3921 9.5 13.0001C9.5 10.6081 11.6276 8.66675 14.2491 8.66675C16.8706 8.66675 18.9981 10.6081 18.9981 13.0001Z" fill="#1ABCFE"/>
</svg>
