<svg width="25" height="28" viewBox="0 0 25 28" fill="none" xmlns="http://www.w3.org/2000/svg">
<path d="M11.3746 0.355531C12.0543 -0.0401424 12.9396 -0.0419296 13.6188 0.355531C17.0355 2.31891 20.4533 4.27921 23.8695 6.24377C24.512 6.61185 24.9418 7.33905 24.9353 8.09197V19.9044C24.94 20.6885 24.4678 21.4331 23.7899 21.7928C20.3844 23.7454 16.9807 25.7003 13.5757 27.6529C12.8819 28.0563 11.9788 28.0252 11.3067 27.5887C10.2857 26.9868 9.26301 26.3879 8.24195 25.7866C8.0333 25.6601 7.7981 25.5594 7.65077 25.3537C7.78101 25.1752 8.01387 25.1529 8.20309 25.075C8.62926 24.9372 9.02068 24.7159 9.4122 24.5013C9.5112 24.4324 9.63207 24.4588 9.72697 24.5204C10.6 25.0295 11.4654 25.5534 12.3413 26.0576C12.5282 26.1673 12.7174 26.0216 12.8772 25.9311C16.219 24.0103 19.565 22.0967 22.9062 20.1754C23.03 20.1148 23.0985 19.9812 23.0884 19.8432C23.0907 15.9466 23.089 12.0492 23.0896 8.15254C23.1037 7.99606 23.0147 7.85219 22.8756 7.78814C19.4819 5.84453 16.0899 3.89793 12.6968 1.95382C12.638 1.91271 12.5684 1.89066 12.4971 1.89055C12.4257 1.89045 12.356 1.91229 12.2971 1.95322C8.90401 3.89793 5.51266 5.84631 2.11955 7.78983C1.98091 7.85397 1.88787 7.99546 1.90437 8.15254C1.90495 12.0492 1.90437 15.9466 1.90437 19.8438C1.89848 19.9111 1.91302 19.9786 1.94601 20.0373C1.979 20.0959 2.02887 20.1429 2.0889 20.1718C2.99436 20.694 3.901 21.2125 4.80705 21.7328C5.31749 22.0122 5.94421 22.1783 6.50658 21.9642C7.00286 21.7832 7.35073 21.2682 7.34126 20.7323C7.34595 16.8584 7.33892 12.9838 7.34478 9.1105C7.33238 8.93853 7.49279 8.79644 7.65721 8.81262C8.09227 8.80965 8.52792 8.80667 8.96298 8.81382C9.14458 8.80965 9.26955 8.99482 9.2471 9.16809C9.24534 13.0665 9.25178 16.9651 9.24417 20.8636C9.24534 21.9025 8.82561 23.0331 7.8806 23.5414C6.7164 24.1547 5.27746 24.0247 4.12732 23.4366C3.13164 22.9312 2.18146 22.3347 1.20345 21.7933C0.52381 21.4356 0.0538937 20.688 0.0586778 19.9045V8.09197C0.0515504 7.32346 0.498425 6.58305 1.16098 6.22034C4.56589 4.2662 7.97023 2.31057 11.3746 0.355531Z" fill="#8CC84B"/>
<path d="M14.3447 8.53801C15.8297 8.44081 17.4195 8.48043 18.7559 9.22441C19.7905 9.79454 20.3641 10.9911 20.3824 12.16C20.3535 12.3177 20.1914 12.4047 20.0434 12.3939C19.6125 12.3933 19.1815 12.3998 18.7507 12.3909C18.5679 12.398 18.4617 12.2267 18.4387 12.0623C18.3149 11.503 18.015 10.9491 17.4973 10.6793C16.7027 10.2747 15.7813 10.2951 14.9148 10.3035C14.2822 10.3377 13.602 10.3934 13.0661 10.7717C12.6547 11.0582 12.5297 11.6367 12.6765 12.1026C12.815 12.4371 13.1947 12.545 13.5053 12.6445C15.295 13.1205 17.1915 13.0731 18.9469 13.6995C19.6737 13.9549 20.3847 14.4514 20.6335 15.2253C20.9589 16.2624 20.8163 17.5022 20.0906 18.3348C19.5022 19.02 18.6451 19.393 17.7903 19.5955C16.6532 19.8534 15.4731 19.86 14.3183 19.7455C13.2324 19.6196 12.1023 19.3294 11.264 18.577C10.5472 17.944 10.1971 16.9578 10.2318 16.0059C10.2401 15.8451 10.3975 15.733 10.549 15.7462C10.9829 15.7427 11.4167 15.7415 11.8506 15.7468C12.0239 15.7342 12.1524 15.8865 12.1613 16.0526C12.2414 16.5855 12.4383 17.1448 12.8952 17.4608C13.7771 18.0394 14.8836 17.9997 15.8933 18.0159C16.7298 17.9782 17.6689 17.9668 18.3516 17.4045C18.7117 17.0838 18.8184 16.5472 18.7211 16.0856C18.6157 15.6959 18.2148 15.5143 17.8705 15.3955C16.1038 14.8272 14.1862 15.0334 12.4365 14.3907C11.7262 14.1354 11.0394 13.6528 10.7665 12.9107C10.3857 11.8604 10.5602 10.5613 11.3619 9.75671C12.1435 8.95643 13.2719 8.64823 14.3447 8.53792V8.53801Z" fill="#8CC84B"/>
</svg>
