<svg width="26" height="24" viewBox="0 0 26 24" fill="none" xmlns="http://www.w3.org/2000/svg">
<path d="M26 12.0026C26 10.2585 23.8431 8.60564 20.5361 7.58064C21.2992 4.16756 20.96 1.45212 19.4656 0.582745C19.1211 0.378819 18.7183 0.282222 18.2784 0.282222V1.47895C18.5222 1.47895 18.7183 1.52725 18.8826 1.61848C19.6033 2.03706 19.916 3.63091 19.6722 5.68091C19.6139 6.18536 19.5185 6.71664 19.402 7.25865C18.3632 7.00106 17.2291 6.8025 16.0367 6.67371C15.3212 5.68091 14.5793 4.77934 13.832 3.99046C15.5597 2.36442 17.1814 1.47358 18.2837 1.47358V0.276855C16.8263 0.276855 14.9185 1.32869 12.9894 3.15329C11.0603 1.33942 9.15247 0.298321 7.69507 0.298321V1.49505C8.79209 1.49505 10.4191 2.38052 12.1468 3.99583C11.4048 4.7847 10.6629 5.68091 9.95801 6.67371C8.76029 6.8025 7.62617 7.00106 6.58744 7.26402C6.46555 6.72737 6.37546 6.20682 6.31186 5.70774C6.06278 3.65774 6.37016 2.0639 7.08561 1.63994C7.2446 1.54335 7.45128 1.50041 7.69507 1.50041V0.303688C7.2499 0.303688 6.84713 0.400285 6.49735 0.604211C5.00815 1.47358 4.67428 4.18366 5.44272 7.58601C2.14635 8.61637 0 10.2639 0 12.0026C0 13.7467 2.15695 15.3996 5.46392 16.4246C4.70077 19.8377 5.03995 22.5531 6.53445 23.4225C6.87892 23.6264 7.2817 23.723 7.72687 23.723C9.18427 23.723 11.0921 22.6712 13.0212 20.8466C14.9503 22.6605 16.8581 23.7016 18.3155 23.7016C18.7607 23.7016 19.1635 23.605 19.5133 23.401C21.0024 22.5317 21.3363 19.8216 20.5679 16.4192C23.8536 15.3942 26 13.7414 26 12.0026ZM19.0999 8.42318C18.9038 9.11546 18.66 9.8292 18.3844 10.5429C18.1671 10.1136 17.9393 9.68431 17.6902 9.25499C17.4464 8.82567 17.1867 8.40708 16.927 7.99923C17.6796 8.11193 18.4056 8.25145 19.0999 8.42318ZM16.6726 14.1385C16.2593 14.863 15.8353 15.5499 15.3954 16.1885C14.6058 16.2583 13.8055 16.2958 13 16.2958C12.1998 16.2958 11.3995 16.2583 10.6152 16.1939C10.1753 15.5552 9.74603 14.8737 9.33265 14.1546C8.92988 13.4516 8.56421 12.7378 8.23033 12.0187C8.55891 11.2996 8.92988 10.5805 9.32736 9.8775C9.74073 9.15302 10.1647 8.46611 10.6046 7.8275C11.3942 7.75774 12.1945 7.72017 13 7.72017C13.8002 7.72017 14.6005 7.75774 15.3848 7.82214C15.8247 8.46075 16.254 9.14229 16.6673 9.8614C17.0701 10.5644 17.4358 11.2782 17.7697 11.9973C17.4358 12.7164 17.0701 13.4355 16.6726 14.1385ZM18.3844 13.4408C18.6706 14.16 18.9144 14.8791 19.1158 15.5767C18.4215 15.7484 17.6902 15.8933 16.9323 16.006C17.192 15.5928 17.4517 15.1689 17.6955 14.7342C17.9393 14.3049 18.1671 13.8702 18.3844 13.4408ZM13.0106 19.1669C12.5177 18.6517 12.0249 18.0775 11.5373 17.4496C12.0143 17.4711 12.5018 17.4872 12.9947 17.4872C13.4929 17.4872 13.9857 17.4764 14.468 17.4496C13.991 18.0775 13.4982 18.6517 13.0106 19.1669ZM9.06767 16.006C8.31512 15.8933 7.58907 15.7538 6.89482 15.5821C7.09091 14.8898 7.33469 14.1761 7.61027 13.4623C7.82756 13.8916 8.05544 14.321 8.30453 14.7503C8.55361 15.1796 8.80799 15.5982 9.06767 16.006ZM12.9841 4.83837C13.477 5.35355 13.9698 5.92777 14.4574 6.55564C13.9804 6.53418 13.4929 6.51808 13 6.51808C12.5018 6.51808 12.009 6.52881 11.5267 6.55564C12.0037 5.92777 12.4965 5.35355 12.9841 4.83837ZM9.06237 7.99923C8.80269 8.41245 8.54301 8.8364 8.29923 9.27109C8.05544 9.70041 7.82756 10.1297 7.61027 10.559C7.32409 9.83993 7.08031 9.12082 6.87892 8.42318C7.57318 8.25682 8.30453 8.11193 9.06237 7.99923ZM4.26621 14.7181C2.39014 13.9077 1.17652 12.8452 1.17652 12.0026C1.17652 11.1601 2.39014 10.0922 4.26621 9.28719C4.72197 9.08863 5.22014 8.91153 5.7342 8.74517C6.03628 9.797 6.43375 10.8918 6.92662 12.0134C6.43905 13.1296 6.04688 14.219 5.7501 15.2655C5.22544 15.0991 4.72727 14.9166 4.26621 14.7181ZM7.11741 22.3868C6.39666 21.9682 6.08398 20.3743 6.32776 18.3243C6.38606 17.8199 6.48145 17.2886 6.59804 16.7466C7.63677 17.0042 8.77089 17.2028 9.96331 17.3315C10.6788 18.3243 11.4207 19.2259 12.168 20.0148C10.4403 21.6408 8.81859 22.5317 7.71627 22.5317C7.47778 22.5263 7.2764 22.478 7.11741 22.3868ZM19.6881 18.2975C19.9372 20.3475 19.6298 21.9414 18.9144 22.3653C18.7554 22.4619 18.5487 22.5048 18.3049 22.5048C17.2079 22.5048 15.5809 21.6194 13.8532 20.0041C14.5952 19.2152 15.3371 18.319 16.042 17.3262C17.2397 17.1974 18.3738 16.9988 19.4126 16.7359C19.5344 17.2779 19.6298 17.7984 19.6881 18.2975ZM21.7285 14.7181C21.2727 14.9166 20.7746 15.0937 20.2605 15.2601C19.9584 14.2083 19.5609 13.1135 19.0681 11.9919C19.5556 10.8757 19.9478 9.78627 20.2446 8.7398C20.7693 8.90617 21.2674 9.08863 21.7338 9.28719C23.6099 10.0975 24.8235 11.1601 24.8235 12.0026C24.8182 12.8452 23.6046 13.9131 21.7285 14.7181Z" fill="#A561FB"/>
<path d="M12.9952 14.455C14.3328 14.455 15.4171 13.357 15.4171 12.0025C15.4171 10.6481 14.3328 9.55005 12.9952 9.55005C11.6576 9.55005 10.5732 10.6481 10.5732 12.0025C10.5732 13.357 11.6576 14.455 12.9952 14.455Z" fill="#A561FB"/>
</svg>
