<svg width="26" height="26" viewBox="0 0 26 26" fill="none" xmlns="http://www.w3.org/2000/svg">
<path d="M0 13V0H26V26H0" fill="#007ACC"/>
<path d="M5.7002 13.0456V14.1051H9.08022V23.7251H11.4787V14.1051H14.8588V13.0651C14.8588 12.4801 14.8588 12.0056 14.8328 11.9926C14.8328 11.9731 12.7722 11.9666 10.2697 11.9666L5.7197 11.9861V13.0521L5.7002 13.0456ZM20.8908 11.9601C21.5538 12.1161 22.0608 12.4151 22.5158 12.8896C22.7563 13.1496 23.1138 13.6046 23.1398 13.7216C23.1398 13.7606 22.0153 14.5211 21.3328 14.9436C21.3068 14.9631 21.2028 14.8526 21.0988 14.6836C20.7608 14.2026 20.4163 13.9946 19.8768 13.9556C19.0968 13.9036 18.5768 14.3131 18.5768 14.9956C18.5768 15.2036 18.6158 15.3206 18.6938 15.4896C18.8693 15.8471 19.1943 16.0616 20.2018 16.5036C22.0608 17.3031 22.8668 17.8296 23.3543 18.5836C23.9068 19.4286 24.0303 20.7546 23.6598 21.7491C23.2438 22.8346 22.2298 23.5691 20.7803 23.8096C20.3253 23.8876 19.2853 23.8746 18.7978 23.7901C17.7578 23.5951 16.7633 23.0751 16.1523 22.4056C15.9118 22.1456 15.4503 21.4501 15.4763 21.4046L15.7233 21.2486L16.6983 20.6831L17.4328 20.2541L17.6018 20.4816C17.8163 20.8196 18.2973 21.2746 18.5768 21.4306C19.4218 21.8661 20.5528 21.8076 21.1118 21.3006C21.3523 21.0796 21.4563 20.8456 21.4563 20.5206C21.4563 20.2216 21.4108 20.0851 21.2613 19.8576C21.0533 19.5716 20.6373 19.3376 19.4673 18.8176C18.1218 18.2456 17.5498 17.8816 17.0168 17.3226C16.7113 16.9846 16.4318 16.4581 16.3018 16.0226C16.2043 15.6456 16.1718 14.7226 16.2628 14.3521C16.5423 13.0521 17.5238 12.1421 18.9278 11.8821C19.3828 11.7911 20.4553 11.8301 20.9038 11.9471L20.8908 11.9601Z" fill="white"/>
</svg>
