<svg width="28" height="36" viewBox="0 0 28 36" fill="none" xmlns="http://www.w3.org/2000/svg">
<path fill-rule="evenodd" clip-rule="evenodd" d="M12.6629 0.206567C11.9916 0.557506 11.5395 1.00171 11.2486 1.59628L10.9964 2.11208H9.73503C8.18308 2.11208 7.8971 2.24595 7.76748 3.03285L7.6676 3.63856H4.07872C0.54836 3.63856 0.485753 3.64405 0.244921 3.9779C0.0272134 4.27953 0 6.03987 0 19.8632C0 30.2877 0.0536404 35.5068 0.162809 35.7048C0.321843 35.9931 0.641641 36 14 36C27.3584 36 27.6782 35.9931 27.8372 35.7048C27.9464 35.5066 28 30.2561 28 19.7616V4.11375L27.6503 3.87623C27.3595 3.67855 26.7155 3.63856 23.8165 3.63856H20.3324L20.2309 3.02323C20.1051 2.25908 19.7732 2.11208 18.1737 2.11208H17.0196L16.7179 1.54774C16.5519 1.2374 16.1516 0.775793 15.8283 0.521939C15.3287 0.12948 15.0829 0.0528504 14.1878 0.0102615C13.4372 -0.0256108 12.9994 0.0308689 12.6629 0.206567ZM15.0012 1.81777C15.2702 2.02308 15.4502 2.34364 15.514 2.73091C15.568 3.05895 15.6954 3.39447 15.7972 3.47629C15.8988 3.55827 16.5801 3.64543 17.3112 3.67L18.6404 3.71488L18.6884 4.43996L18.7364 5.16504H14H9.2636L9.31157 4.43996L9.35955 3.71488L10.6888 3.67C11.4199 3.64543 12.1012 3.55827 12.2028 3.47629C12.3046 3.39447 12.432 3.05895 12.486 2.73091C12.6107 1.97423 13.1929 1.50148 14 1.50148C14.3555 1.50148 14.7502 1.6262 15.0012 1.81777ZM7.75836 5.7129C7.92982 6.73869 7.62921 6.69152 14 6.69152C20.3708 6.69152 20.0702 6.73869 20.2416 5.7129L20.3333 5.16504H23.3802H26.427V19.8193V34.4735H14H1.57303V19.8193V5.16504H4.61984H7.66665L7.75836 5.7129ZM7.67058 11.8393L6.29843 13.1707L5.69879 12.6025C5.08153 12.0176 4.4789 11.8704 4.12135 12.2174C3.73674 12.5906 3.93542 13.0709 4.8591 14.0012C6.1858 15.3375 6.27263 15.3198 8.36854 13.2859C10.0883 11.617 10.357 11.1551 9.87865 10.6909C9.46951 10.2939 9.02497 10.525 7.67058 11.8393ZM12.5811 10.8188C12.3464 11.2443 12.5319 11.7172 13.0013 11.8903C13.2157 11.9695 15.6361 12.0342 18.3798 12.0342C23.772 12.0342 24.0674 11.9918 24.0674 11.2165C24.0674 10.516 23.9996 10.5077 18.2212 10.5077C12.8798 10.5077 12.7487 10.5149 12.5811 10.8188ZM12.7416 13.7133C12.3628 14.0809 12.3428 14.3731 12.6741 14.6947C12.8893 14.9034 13.6206 14.9345 18.3056 14.9345C23.9947 14.9345 24.0674 14.9255 24.0674 14.2258C24.0674 13.4473 23.786 13.4081 18.2121 13.4081C13.2659 13.4081 13.0434 13.4204 12.7416 13.7133ZM4.20787 18.1524C3.96231 18.2911 3.93258 18.5956 3.93258 20.9683C3.93258 24.3427 3.71865 24.1351 7.12317 24.0661C8.88622 24.0305 9.6191 23.9599 9.80787 23.8077C10.0308 23.6277 10.0674 23.2247 10.0674 20.9509C10.0674 18.4897 10.046 18.2925 9.76319 18.1455C9.36726 17.9399 4.57328 17.9458 4.20787 18.1524ZM12.6741 18.9906C12.3428 19.3122 12.3628 19.6044 12.7416 19.9719C13.0436 20.265 13.2659 20.2772 18.3147 20.2772C22.8853 20.2772 23.6054 20.2458 23.8203 20.0374C23.9562 19.9054 24.0674 19.6698 24.0674 19.514C24.0674 19.3581 23.9562 19.1226 23.8203 18.9906C23.6053 18.782 22.8791 18.7507 18.2472 18.7507C13.6152 18.7507 12.8891 18.782 12.6741 18.9906ZM8.49438 21.0405V22.5669H7H5.50562V21.0405V19.514H7H8.49438V21.0405ZM12.5811 22.1148C12.3464 22.5402 12.5319 23.0131 13.0013 23.1862C13.2157 23.2655 15.6361 23.3302 18.3798 23.3302C23.772 23.3302 24.0674 23.2878 24.0674 22.5125C24.0674 21.812 23.9996 21.8037 18.2212 21.8037C12.8798 21.8037 12.7487 21.8109 12.5811 22.1148ZM4.28227 26.4682C3.94438 26.6978 3.93258 26.7929 3.93258 29.2812C3.93258 31.419 3.97458 31.8974 4.17971 32.0966C4.38389 32.2946 4.86539 32.3364 6.9429 32.3364C8.3764 32.3364 9.58984 32.2685 9.76319 32.1784C10.0467 32.0311 10.0674 31.8332 10.0674 29.2835C10.0674 26.7338 10.0467 26.5358 9.76319 26.3885C9.59126 26.2994 8.40818 26.2305 7.0453 26.2305C5.11551 26.2305 4.5618 26.2781 4.28227 26.4682ZM12.7416 27.299C12.3628 27.6666 12.3428 27.9588 12.6741 28.2804C12.8891 28.4889 13.6152 28.5202 18.2472 28.5202C22.8791 28.5202 23.6053 28.4889 23.8203 28.2804C23.9562 28.1484 24.0674 27.9128 24.0674 27.757C24.0674 27.6011 23.9562 27.3656 23.8203 27.2336C23.6054 27.0252 22.8853 26.9937 18.3147 26.9937C13.2659 26.9937 13.0436 27.006 12.7416 27.299ZM8.49438 29.2835V30.81H7H5.50562V29.2835V27.757H7H8.49438V29.2835ZM12.6741 30.2865C12.3428 30.6082 12.3628 30.9003 12.7416 31.2679C13.0436 31.561 13.2659 31.5732 18.3147 31.5732C22.8853 31.5732 23.6054 31.5418 23.8203 31.3334C23.9562 31.2013 24.0674 30.9658 24.0674 30.81C24.0674 30.6541 23.9562 30.4186 23.8203 30.2865C23.6053 30.078 22.8791 30.0467 18.2472 30.0467C13.6152 30.0467 12.8891 30.078 12.6741 30.2865Z" fill="#FF6D00"/>
</svg>
