<svg width="31" height="37" viewBox="0 0 31 37" fill="none" xmlns="http://www.w3.org/2000/svg">
<path fill-rule="evenodd" clip-rule="evenodd" d="M11.0015 0.425831C10.4379 0.821381 9.64653 2.10001 9.64653 2.61479C9.64653 2.78399 11.6006 2.83887 17.6132 2.83887C26.3322 2.83887 26.2962 2.83471 27.3474 3.96345L27.9094 4.5668L27.9605 15.91L28.0116 27.2532H28.5003C29.2709 27.2532 30.2577 26.5208 30.6434 25.6625C30.9704 24.935 30.9919 24.1955 30.9959 13.6194L31 2.35135L30.5785 1.50688C29.8089 -0.035391 30.0559 0.000567567 20.227 0.000378309L11.608 0L11.0015 0.425831ZM7.11782 4.90293C5.96286 5.19476 5.17428 6.02201 4.89051 7.23913L4.76932 7.75959H12.8347C20.5836 7.75959 20.9296 7.77473 21.6492 8.14568C22.0613 8.35821 22.5633 8.80524 22.7649 9.13928C23.1179 9.72428 23.1316 10.1626 23.1322 20.9604L23.1329 32.1739H23.6259C24.3656 32.1739 25.3454 31.4714 25.7652 30.64C26.1275 29.9227 26.1368 29.5646 26.0872 18.2765C26.0368 6.79475 26.0314 6.64505 25.642 6.1174C25.4252 5.82348 24.9616 5.41279 24.6118 5.2046C24.0045 4.84312 23.6076 4.82457 15.8278 4.79353C11.3464 4.77555 7.42689 4.82476 7.11782 4.90293ZM2.14808 9.82572C1.35295 10.0774 0.841027 10.4724 0.410774 11.1662L0 11.8286V23.3734C0 34.5779 0.0110514 34.9371 0.374622 35.5607C0.580665 35.9142 0.98713 36.3826 1.27802 36.6016C1.79819 36.9934 1.95309 37 10.6436 37H19.4804L20.0661 36.578C21.2943 35.6926 21.2598 36.0749 21.2598 23.3255V11.79L20.8384 11.1643C20.6065 10.8203 20.179 10.3606 19.8883 10.1427C19.3723 9.75627 19.1608 9.74605 10.991 9.71122C6.38825 9.69154 2.40901 9.74302 2.14808 9.82572Z" fill="#FF6D00"/>
</svg>
