<svg width="55" height="40" viewBox="0 0 55 40" fill="none" xmlns="http://www.w3.org/2000/svg">
<path fill-rule="evenodd" clip-rule="evenodd" d="M22.1427 0.0818062C21.594 0.213634 21.1577 0.673922 21.0218 1.26444C20.9609 1.5292 20.9097 4.19114 20.9081 7.17981L20.9051 12.6139L22.1582 12.6812C22.8474 12.7183 23.5627 12.808 23.7475 12.8807L24.0837 13.0128V8.0877V3.16263H38.0205H51.9572V14.0045V24.8465H37.9593H23.9614V23.0548V21.2632L23.3951 21.5977C22.9455 21.8632 22.6278 21.9439 21.8559 21.989L20.8831 22.0457L20.9247 24.4066C20.9699 26.9739 21.0213 27.1818 21.7265 27.6476C22.0297 27.8479 22.6174 27.8677 29.2434 27.9004L36.4312 27.9359V30.053V32.1702L33.69 34.9457C31.3654 37.2994 30.9362 37.7906 30.8656 38.1779C30.682 39.185 31.6171 40.1273 32.616 39.9418C32.9976 39.871 33.4562 39.47 35.5168 37.4046L37.9645 34.9516L40.0402 37.0532C42.5316 39.5756 42.8982 39.8841 43.4933 39.9581C44.4669 40.0793 45.3513 39.1432 45.1753 38.1779C45.1047 37.7906 44.6755 37.2994 42.3509 34.9457L39.6097 32.1702V30.0522V27.9342L46.7309 27.8996C53.5495 27.8664 53.8689 27.8547 54.2475 27.624C55.0629 27.1268 55.0202 27.9278 54.9847 13.7976C54.953 1.22489 54.9482 1.0009 54.7079 0.67614C54.197 -0.0141697 55.0942 0.0224219 38.2038 0.00184686C29.5973 -0.00874864 22.3697 0.0273502 22.1427 0.0818062ZM6.85896 3.35766C4.78129 3.9207 3.26377 5.61488 2.90997 7.7665C2.53869 10.0249 3.82466 12.4141 5.95136 13.4171C8.19873 14.4769 11.1071 13.6946 12.4992 11.6558C13.2432 10.5661 13.4809 9.71472 13.4257 8.33718C13.3858 7.33825 13.3222 7.04478 12.9914 6.33402C11.8768 3.93943 9.30975 2.69347 6.85896 3.35766ZM29.5239 7.27184C28.8411 7.59291 28.0722 8.37993 27.7775 9.05915C27.5235 9.64474 27.4088 13.6735 27.6234 14.4764C27.8229 15.223 28.2796 15.4036 29.7995 15.3366C30.8411 15.2907 30.9636 15.2585 31.2691 14.9505C31.599 14.6177 31.6022 14.5985 31.6022 12.9435V11.2725L31.2592 10.9753C30.9798 10.7332 30.7813 10.678 30.1895 10.678C29.4934 10.678 29.4628 10.6649 29.4628 10.3661C29.4628 9.82252 29.799 9.2049 30.2166 8.98117C30.9508 8.5879 31.2687 8.18995 31.2039 7.74494C31.1412 7.31447 30.782 6.9812 30.383 6.98317C30.2467 6.98379 29.8601 7.11377 29.5239 7.27184ZM35.2698 7.21196C34.5791 7.52934 34.035 8.02461 33.6475 8.68893C33.3158 9.25764 33.3135 9.27784 33.2747 11.9243L33.2359 14.5872L33.5325 14.9347C33.8089 15.2585 33.9043 15.2859 34.9322 15.3354C36.1886 15.3959 36.8333 15.2383 37.1175 14.8012C37.2698 14.567 37.2984 14.188 37.266 12.8336C37.2272 11.2118 37.2157 11.1484 36.9202 10.9199C36.7018 10.7511 36.4137 10.6827 35.9116 10.6808L35.2087 10.678V10.2407C35.2087 9.56712 35.5164 9.09316 36.1238 8.83073C36.9724 8.4642 37.1964 7.71155 36.598 7.23734C36.2044 6.92527 35.9063 6.9196 35.2698 7.21196ZM39.0359 12.9468L38.6928 13.2444V14.9904V16.7366L39.0359 17.0337C39.3152 17.2758 39.5138 17.331 40.1056 17.331C40.8231 17.331 40.8323 17.3355 40.8323 17.6824C40.8323 18.1644 40.371 18.8131 39.7978 19.1371C39.1995 19.4753 38.9992 19.8497 39.1391 20.3684C39.2146 20.6487 39.3513 20.7947 39.6292 20.8924C40.3882 21.159 41.8954 20.1896 42.4387 19.0852C42.7129 18.5277 42.7258 18.3832 42.7264 15.8729L42.7272 13.2444L42.3841 12.9468C42.0669 12.6716 41.9412 12.6493 40.71 12.6493C39.4788 12.6493 39.3531 12.6716 39.0359 12.9468ZM44.9277 12.7981C44.4316 13.0848 44.3855 13.2731 44.3815 15.0269C44.3776 16.7091 44.381 16.7299 44.701 17.0289C44.9678 17.2781 45.15 17.331 45.7402 17.331H46.4559V17.7068C46.4559 18.2478 46.1453 18.7745 45.6897 19.0066C44.8218 19.4487 44.5564 19.9502 44.874 20.5484C45.2148 21.19 46.2699 21.0088 47.2488 20.1404C48.2775 19.2279 48.345 18.9901 48.3905 16.116C48.4334 13.4103 48.3711 13.0288 47.8477 12.7885C47.4532 12.6073 45.2452 12.6146 44.9277 12.7981ZM4.18274 15.716C2.47793 16.3094 1.09868 17.8994 0.75124 19.6719C0.567372 20.6096 0 25.8336 0 26.5886C0 27.5112 0.373847 27.838 1.65041 28.0311C2.18832 28.1125 2.80679 28.2078 3.02477 28.2431C3.30827 28.2888 3.43663 28.3844 3.47575 28.5788C3.50583 28.7282 3.64984 31.0682 3.79569 33.7787C4.02785 38.089 4.09093 38.766 4.29937 39.1782C4.68642 39.9436 4.95819 40.0006 8.21755 40C10.8567 39.9996 11.0933 39.9815 11.4685 39.7509C11.6911 39.6141 11.95 39.317 12.0439 39.0906C12.1686 38.7895 12.3315 36.2647 12.6494 29.6989C13.1227 19.9283 13.0919 20.1866 13.8537 19.6203C14.184 19.3749 14.3701 19.3623 18.2156 19.3255C21.1292 19.2977 22.2656 19.2469 22.3531 19.1407C22.4647 19.0051 23.2233 17.018 23.4107 16.3702C23.4618 16.1937 23.4186 15.9731 23.2964 15.785L23.1001 15.483L13.9645 15.4871C5.44304 15.4907 4.78557 15.5061 4.18274 15.716Z" fill="#FF6D00"/>
</svg>
